<?xml version="1.0" encoding="UTF-8" standalone="no"?>
<!-- Created with Inkscape (http://www.inkscape.org/) -->

<svg
   xmlns:dc="http://purl.org/dc/elements/1.1/"
   xmlns:cc="http://creativecommons.org/ns#"
   xmlns:rdf="http://www.w3.org/1999/02/22-rdf-syntax-ns#"
   xmlns:svg="http://www.w3.org/2000/svg"
   xmlns="http://www.w3.org/2000/svg"
   xmlns:sodipodi="http://sodipodi.sourceforge.net/DTD/sodipodi-0.dtd"
   xmlns:inkscape="http://www.inkscape.org/namespaces/inkscape"
   width="78.70031mm"
   height="89.257187mm"
   viewBox="0 0 78.70031 89.257186"
   version="1.1"
   id="svg8"
   inkscape:version="0.92.4 (5da689c313, 2019-01-14)"
   sodipodi:docname="css.svg">
  <defs
     id="defs2" />
  <sodipodi:namedview
     id="base"
     pagecolor="#ffffff"
     bordercolor="#666666"
     borderopacity="1.0"
     inkscape:pageopacity="0.0"
     inkscape:pageshadow="2"
     inkscape:zoom="0.98994949"
     inkscape:cx="-61.16381"
     inkscape:cy="226.58852"
     inkscape:document-units="mm"
     inkscape:current-layer="layer1"
     showgrid="false"
     fit-margin-top="0"
     fit-margin-left="0"
     fit-margin-right="0"
     fit-margin-bottom="0"
     inkscape:window-width="1920"
     inkscape:window-height="1043"
     inkscape:window-x="3840"
     inkscape:window-y="0"
     inkscape:window-maximized="1" />
  <metadata
     id="metadata5">
    <rdf:RDF>
      <cc:Work
         rdf:about="">
        <dc:format>image/svg+xml</dc:format>
        <dc:type
           rdf:resource="http://purl.org/dc/dcmitype/StillImage" />
        <dc:title />
      </cc:Work>
    </rdf:RDF>
  </metadata>
  <g
     inkscape:label="Layer 1"
     inkscape:groupmode="layer"
     id="layer1"
     transform="translate(-40.700852,-138.60879)">
    <polygon
       id="polygon37"
       points="998,228.37 970.9,531.94 849.09,565.72 727.62,531.99 700.55,228.37 "
       style="fill:#00649c;fill-opacity:1"
       transform="matrix(0.26458333,0,0,0.26458333,-144.653,78.185894)" />
    <polygon
       id="polygon39"
       points="849.28,253.2 849.28,539.9 947.7,512.62 970.86,253.2 "
       style="fill:#0087d0;fill-opacity:1"
       transform="matrix(0.26458333,0,0,0.26458333,-144.653,78.185894)" />
    <g
       id="g41"
       transform="matrix(0.26458333,0,0,0.26458333,-144.653,78.185894)">
      <polygon
         id="polygon43"
         points="941.76,297.82 932.6,400.44 849.28,400.44 849.28,363.2 898.55,363.2 901.95,325.07 849.28,325.07 849.28,287.83 849.4,287.83 942.65,287.83 "
         style="fill:#ffffff" />
      <polygon
         id="polygon45"
         points="849.5,459.91 849.34,459.95 807.86,448.75 805.21,419.06 785.06,419.06 767.83,419.06 773.05,477.52 849.33,498.7 849.5,498.65 "
         style="fill:#ebebeb" />
      <polygon
         id="polygon47"
         points="932.75,398.86 895.39,398.86 890.9,448.73 849.37,459.94 849.37,498.68 925.71,477.52 926.27,471.23 "
         style="fill:#ffffff" />
      <polygon
         id="polygon49"
         points="758.71,316.7 757.01,297.82 756.12,287.83 849.4,287.83 849.4,310.96 849.4,324.98 849.4,325.07 759.58,325.07 759.46,325.07 "
         style="fill:#ebebeb" />
      <polygon
         id="polygon51"
         points="807.58,392.07 805.88,373.2 804.99,363.2 849.28,363.2 849.28,386.33 849.28,400.35 849.28,400.44 808.45,400.44 808.33,400.44 "
         style="fill:#ebebeb" />
    </g>
  </g>
</svg>
