<?xml version="1.0" encoding="UTF-8" standalone="no"?>
<svg
   xmlns:dc="http://purl.org/dc/elements/1.1/"
   xmlns:cc="http://creativecommons.org/ns#"
   xmlns:rdf="http://www.w3.org/1999/02/22-rdf-syntax-ns#"
   xmlns:svg="http://www.w3.org/2000/svg"
   xmlns="http://www.w3.org/2000/svg"
   xmlns:sodipodi="http://sodipodi.sourceforge.net/DTD/sodipodi-0.dtd"
   xmlns:inkscape="http://www.inkscape.org/namespaces/inkscape"
   height="512pt"
   viewBox="0 -64 512 512"
   width="512pt"
   version="1.1"
   id="svg16"
   sodipodi:docname="43-light.svg"
   inkscape:version="0.92.4 (5da689c313, 2019-01-14)">
  <metadata
     id="metadata22">
    <rdf:RDF>
      <cc:Work
         rdf:about="">
        <dc:format>image/svg+xml</dc:format>
        <dc:type
           rdf:resource="http://purl.org/dc/dcmitype/StillImage" />
      </cc:Work>
    </rdf:RDF>
  </metadata>
  <defs
     id="defs20" />
  <sodipodi:namedview
     pagecolor="#ffffff"
     bordercolor="#666666"
     borderopacity="1"
     objecttolerance="10"
     gridtolerance="10"
     guidetolerance="10"
     inkscape:pageopacity="0"
     inkscape:pageshadow="2"
     inkscape:window-width="2560"
     inkscape:window-height="1376"
     id="namedview18"
     showgrid="false"
     inkscape:snap-bbox="true"
     inkscape:bbox-paths="true"
     inkscape:bbox-nodes="true"
     inkscape:snap-bbox-midpoints="true"
     inkscape:snap-bbox-edge-midpoints="true"
     inkscape:snap-intersection-paths="true"
     inkscape:object-paths="true"
     inkscape:object-nodes="true"
     inkscape:snap-smooth-nodes="true"
     inkscape:snap-midpoints="true"
     inkscape:snap-object-midpoints="true"
     inkscape:snap-center="true"
     showguides="true"
     inkscape:guide-bbox="true"
     inkscape:zoom="1.3828125"
     inkscape:cx="364.07616"
     inkscape:cy="285.08767"
     inkscape:window-x="0"
     inkscape:window-y="27"
     inkscape:window-maximized="1"
     inkscape:current-layer="svg16" />
  <path
     d="m 177.06641,209.06641 h -32 c -21.33203,0 -38.39844,-17.06641 -38.39844,-38.39844 v -25.60156 c 0,-10.66797 6.39844,-17.06641 17.06641,-17.06641 10.66796,0 17.0664,6.39844 17.0664,17.06641 v 25.60156 c 0,2.13281 2.13281,6.39844 6.40235,6.39844 h 32 c 8.53125,0 17.0664,6.39843 17.0664,17.0664 0,10.66797 -10.66797,14.9336 -19.20312,14.9336 z m 0,0"
     id="path2"
     inkscape:connector-curvature="0"
     style="fill:#08649a;fill-opacity:1" />
  <path
     d="M 177.06641,256 C 168.53516,256 160,249.60156 160,238.93359 V 145.06641 C 160,136.53516 166.40234,128 177.06641,128 187.73438,128 192,134.39844 192,145.06641 v 96 C 192,249.60156 185.60156,256 177.06641,256 Z m 0,0"
     id="path4"
     inkscape:connector-curvature="0"
     style="fill:#08649a;fill-opacity:1" />
  <path
     d="m 394.66797,209.06641 h -53.33203 c -10.66797,0 -17.06641,-8.53125 -17.06641,-17.06641 0,-8.53516 6.39844,-17.06641 17.06641,-17.06641 h 53.33203 c 8.53515,2.13282 14.93359,8.53125 14.93359,17.06641 0,8.53516 -6.39844,17.06641 -14.93359,17.06641 z m 0,0"
     id="path6"
     inkscape:connector-curvature="0"
     style="fill:#08649a;fill-opacity:1" />
  <path
     d="m 373.33594,256 h -32 c -10.66797,0 -17.06641,-6.39844 -17.06641,-14.93359 0,-8.53125 6.39844,-17.06641 17.06641,-17.06641 h 32 c 2.13281,0 6.39843,-2.13281 6.39843,-6.39844 v -53.33593 c 0,-2.13282 -2.13281,-6.39844 -6.39843,-6.39844 h -32 C 330.66797,160 324.26953,153.60156 324.26953,145.06641 324.26953,136.53516 330.66797,128 341.33594,128 h 32 c 19.19921,0 36.26562,17.06641 36.26562,38.39844 v 53.33594 C 409.60156,238.93359 392.53515,256 373.33594,256 Z m 0,0"
     id="path8"
     inkscape:connector-curvature="0"
     style="fill:#08649a;fill-opacity:1" />
  <path
     d="m277.332031 149.332031c0 11.785157-9.550781 21.335938-21.332031 21.335938s-21.332031-9.550781-21.332031-21.335938c0-11.78125 9.550781-21.332031 21.332031-21.332031s21.332031 9.550781 21.332031 21.332031zm0 0"
     id="path10"
     style="fill:#08649a;fill-opacity:1" />
  <path
     d="m277.332031 234.667969c0 11.78125-9.550781 21.332031-21.332031 21.332031s-21.332031-9.550781-21.332031-21.332031c0-11.785157 9.550781-21.335938 21.332031-21.335938s21.332031 9.550781 21.332031 21.335938zm0 0"
     id="path12"
     style="fill:#08649a;fill-opacity:1" />
  <path
     d="m454.398438 384h-394.664063c-34.132813 0-59.734375-25.601562-59.734375-57.601562v-266.664063c0-34.132813 25.601562-59.734375 59.734375-59.734375h394.664063c32 0 57.601562 25.601562 57.601562 59.734375v266.664063c0 32-25.601562 57.601562-57.601562 57.601562zm-394.664063-352c-14.933594 0-27.734375 12.800781-27.734375 27.734375v266.664063c0 14.933593 12.800781 27.734374 27.734375 27.734374h394.664063c14.933593 0 27.734374-12.800781 27.734374-27.734374v-266.664063c0-14.933594-12.800781-27.734375-27.734374-27.734375zm0 0"
     id="path14"
     style="fill:#08649a;fill-opacity:1" />
</svg>
