<?xml version="1.0" standalone="no"?>
<!DOCTYPE svg PUBLIC "-//W3C//DTD SVG 20010904//EN"
 "http://www.w3.org/TR/2001/REC-SVG-20010904/DTD/svg10.dtd">
<svg version="1.0" xmlns="http://www.w3.org/2000/svg"
 width="856.000000pt" height="856.000000pt" viewBox="0 0 856.000000 856.000000"
 preserveAspectRatio="xMidYMid meet">
<metadata>
Created by potrace 1.11, written by Peter Selinger 2001-2013
</metadata>
<g transform="translate(0.000000,856.000000) scale(0.100000,-0.100000)"
fill="#000000" stroke="none">
<path d="M4 8353 c3 -21 13 -117 21 -213 8 -96 24 -274 34 -395 11 -121 54
-602 96 -1070 66 -749 118 -1333 185 -2080 36 -402 53 -580 54 -582 1 -1 132
-38 291 -82 160 -44 486 -135 725 -201 239 -67 502 -139 583 -162 l149 -41
146 40 c81 22 148 40 149 39 1 -1 6 -57 12 -126 42 -480 82 -904 86 -908 2 -2
108 -33 237 -68 128 -36 283 -79 343 -96 61 -16 124 -34 140 -38 17 -4 179
-49 360 -100 567 -158 619 -172 646 -177 14 -3 77 9 139 27 62 17 116 27 120
23 4 -4 24 -197 44 -428 75 -838 96 -1059 103 -1066 7 -6 89 -30 343 -99 59
-16 292 -81 1113 -310 l289 -80 686 191 c378 104 741 205 807 224 66 18 149
41 185 51 36 9 68 20 72 23 4 3 28 236 53 516 25 281 52 582 60 670 8 88 53
592 100 1120 84 942 94 1061 155 1731 16 183 30 335 30 338 0 3 -520 6 -1155
6 -953 0 -1155 2 -1155 13 0 8 4 60 10 118 9 97 20 226 71 789 11 124 26 297
34 385 8 88 22 241 30 340 8 99 18 199 21 223 l6 42 -1132 0 -1133 0 7 58 c3
31 31 336 61 677 30 341 57 641 60 668 l6 47 -2147 0 -2146 0 6 -37z m3481
-960 c-4 -60 -14 -182 -24 -273 l-16 -165 -1029 3 -1029 3 6 -68 c3 -37 13
-156 22 -263 9 -107 18 -201 20 -208 4 -10 84 -12 376 -12 204 1 373 -1 375
-2 3 -3 14 -131 47 -512 l2 -28 -645 1 c-354 1 -645 3 -646 4 -2 2 -108 1178
-141 1560 l-6 67 1348 0 1347 0 -7 -107z m2545 -815 c0 -37 -130 -1501 -135
-1525 l-5 -23 -810 0 -810 0 0 395 0 395 -247 -6 c-137 -4 -249 -8 -251 -9 -3
-2 -25 -232 -48 -485 -8 -96 -19 -211 -24 -255 -4 -44 -6 -83 -3 -88 2 -4 131
-7 286 -7 224 1 283 -1 289 -12 4 -7 16 -130 28 -273 35 -432 59 -707 85 -975
23 -246 31 -336 75 -855 11 -132 22 -263 25 -291 l6 -50 -95 -27 c-53 -15
-103 -27 -111 -27 -13 0 -15 37 -15 274 l0 274 -32 10 c-18 6 -107 31 -198 56
-91 25 -246 68 -345 95 -99 28 -258 72 -352 98 -172 47 -173 48 -177 78 -6 38
-60 661 -69 785 l-2 35 272 3 272 2 5 -52 c4 -29 13 -125 22 -212 8 -88 17
-163 20 -168 3 -4 11 -8 18 -8 9 0 474 -124 549 -146 16 -5 17 20 17 420 l0
426 -590 0 -589 0 4 28 c3 15 12 106 20 202 15 179 33 388 60 680 9 91 29 311
45 490 16 179 35 378 41 443 l13 117 498 0 498 0 0 98 c0 54 3 102 7 105 3 4
399 7 880 7 l873 0 0 -22z m-4517 -1035 c3 -32 12 -127 19 -212 11 -139 14
-154 33 -161 11 -4 143 -40 293 -80 l273 -73 86 22 c47 12 87 20 89 19 2 -3
12 -98 38 -393 8 -82 11 -153 7 -156 -3 -3 -50 -18 -103 -33 l-97 -27 -138 39
c-76 22 -322 90 -548 152 -225 62 -413 116 -417 119 -6 5 -78 758 -78 816 l0
25 269 0 268 0 6 -57z m6247 -1390 c0 -18 -130 -1487 -200 -2256 -22 -241 -40
-444 -40 -452 0 -7 -29 -21 -72 -33 -40 -11 -287 -79 -548 -152 l-475 -132
-60 15 c-207 54 -1040 288 -1045 294 -4 5 -14 96 -24 203 -33 392 -46 536 -52
583 l-6 47 270 0 269 0 6 -52 c4 -29 12 -121 18 -205 7 -84 15 -156 18 -161 5
-7 282 -84 531 -148 l65 -17 285 77 c157 42 292 80 300 85 11 6 21 74 42 302
15 162 27 315 27 342 l1 47 -182 0 c-101 0 -381 3 -624 7 l-441 6 -22 251
c-12 138 -21 257 -21 263 0 10 145 13 673 15 l672 3 22 240 c12 132 22 255 22
273 l1 32 -1024 0 -1024 0 -6 48 c-3 26 -13 128 -21 227 -8 99 -17 199 -21
223 l-5 42 1345 0 c1266 0 1346 -1 1346 -17z"/>
</g>
</svg>
