<?xml version="1.0" encoding="UTF-8" standalone="no"?>
<!-- Created with Inkscape (http://www.inkscape.org/) -->

<svg
   xmlns:dc="http://purl.org/dc/elements/1.1/"
   xmlns:cc="http://creativecommons.org/ns#"
   xmlns:rdf="http://www.w3.org/1999/02/22-rdf-syntax-ns#"
   xmlns:svg="http://www.w3.org/2000/svg"
   xmlns="http://www.w3.org/2000/svg"
   xmlns:sodipodi="http://sodipodi.sourceforge.net/DTD/sodipodi-0.dtd"
   xmlns:inkscape="http://www.inkscape.org/namespaces/inkscape"
   width="78.70031mm"
   height="89.254539mm"
   viewBox="0 0 78.70031 89.254539"
   version="1.1"
   id="svg8"
   inkscape:version="0.92.4 (5da689c313, 2019-01-14)"
   sodipodi:docname="html.svg">
  <defs
     id="defs2" />
  <sodipodi:namedview
     id="base"
     pagecolor="#ffffff"
     bordercolor="#666666"
     borderopacity="1.0"
     inkscape:pageopacity="0.0"
     inkscape:pageshadow="2"
     inkscape:zoom="0.35"
     inkscape:cx="154.43928"
     inkscape:cy="308.49892"
     inkscape:document-units="mm"
     inkscape:current-layer="layer1"
     showgrid="false"
     fit-margin-top="0"
     fit-margin-left="0"
     fit-margin-right="0"
     fit-margin-bottom="0"
     inkscape:window-width="960"
     inkscape:window-height="1043"
     inkscape:window-x="3840"
     inkscape:window-y="0"
     inkscape:window-maximized="0" />
  <metadata
     id="metadata5">
    <rdf:RDF>
      <cc:Work
         rdf:about="">
        <dc:format>image/svg+xml</dc:format>
        <dc:type
           rdf:resource="http://purl.org/dc/dcmitype/StillImage" />
        <dc:title></dc:title>
      </cc:Work>
    </rdf:RDF>
  </metadata>
  <g
     inkscape:label="Layer 1"
     inkscape:groupmode="layer"
     id="layer1"
     transform="translate(-66.483178,-144.60425)">
    <polygon
       id="polygon5"
       points="323.45,228.35 296.35,531.92 174.54,565.69 53.07,531.97 26,228.35 "
       style="fill:#e45126"
       transform="matrix(0.26458333,0,0,0.26458333,59.604011,84.186649)" />
    <polygon
       id="polygon7"
       points="174.72,253.18 174.72,539.88 273.15,512.59 296.31,253.18 "
       style="fill:#f1682b"
       transform="matrix(0.26458333,0,0,0.26458333,59.604011,84.186649)" />
    <polygon
       id="polygon9"
       points="82.242,300.4 91.394,403.02 174.72,403.02 174.72,365.78 125.45,365.78 122.05,327.65 174.72,327.65 174.72,290.41 174.6,290.41 81.35,290.41 "
       style="fill:#ebebeb"
       transform="matrix(0.26458333,0,0,0.26458333,59.604011,84.186649)" />
    <polygon
       id="polygon11"
       points="174.72,462.49 174.56,462.54 133.09,451.34 130.44,421.64 110.29,421.64 93.058,421.64 98.275,480.11 174.55,501.28 174.72,501.24 "
       style="fill:#ebebeb"
       transform="matrix(0.26458333,0,0,0.26458333,59.604011,84.186649)" />
    <polygon
       id="polygon23"
       points="174.6,501.27 250.94,480.11 251.5,473.82 260.25,375.78 261.15,365.78 251.12,365.78 174.6,365.78 174.6,403.02 220.45,403.02 216.13,451.31 174.6,462.52 "
       style="fill:#ffffff"
       transform="matrix(0.26458333,0,0,0.26458333,59.604011,84.186649)" />
    <polygon
       id="polygon25"
       points="265.29,319.28 266.99,300.4 267.88,290.41 174.6,290.41 174.6,313.54 174.6,327.56 174.6,327.65 264.42,327.65 264.54,327.65 "
       style="fill:#ffffff"
       transform="matrix(0.26458333,0,0,0.26458333,59.604011,84.186649)" />
  </g>
</svg>
