<?xml version="1.0" encoding="UTF-8" standalone="no"?>
<svg
   xmlns:dc="http://purl.org/dc/elements/1.1/"
   xmlns:cc="http://creativecommons.org/ns#"
   xmlns:rdf="http://www.w3.org/1999/02/22-rdf-syntax-ns#"
   xmlns:svg="http://www.w3.org/2000/svg"
   xmlns="http://www.w3.org/2000/svg"
   xmlns:sodipodi="http://sodipodi.sourceforge.net/DTD/sodipodi-0.dtd"
   xmlns:inkscape="http://www.inkscape.org/namespaces/inkscape"
   height="512pt"
   viewBox="0 -64 512 512"
   width="512pt"
   version="1.1"
   id="svg8"
   sodipodi:docname="169.svg"
   inkscape:version="0.92.4 (5da689c313, 2019-01-14)">
  <metadata
     id="metadata14">
    <rdf:RDF>
      <cc:Work
         rdf:about="">
        <dc:format>image/svg+xml</dc:format>
        <dc:type
           rdf:resource="http://purl.org/dc/dcmitype/StillImage" />
      </cc:Work>
    </rdf:RDF>
  </metadata>
  <defs
     id="defs12" />
  <sodipodi:namedview
     pagecolor="#ffffff"
     bordercolor="#666666"
     borderopacity="1"
     objecttolerance="10"
     gridtolerance="10"
     guidetolerance="10"
     inkscape:pageopacity="0"
     inkscape:pageshadow="2"
     inkscape:window-width="781"
     inkscape:window-height="480"
     id="namedview10"
     showgrid="false"
     inkscape:zoom="0.9777961"
     inkscape:cx="498.89059"
     inkscape:cy="374.90893"
     inkscape:window-x="0"
     inkscape:window-y="27"
     inkscape:window-maximized="0"
     inkscape:current-layer="svg8" />
  <path
     d="m389.332031 160h-10.664062c-2.945313 0-5.335938 2.390625-5.335938 5.332031v5.335938c0 2.941406 2.390625 5.332031 5.335938 5.332031h16v-10.667969c0-2.941406-2.390625-5.332031-5.335938-5.332031zm0 0"
     id="path2"
     style="fill:#08649a;fill-opacity:1" />
  <path
     d="m160 218.667969c0 2.941406 2.390625 5.332031 5.332031 5.332031h10.667969c2.945312 0 5.332031-2.390625 5.332031-5.332031v-5.335938c0-2.941406-2.386719-5.332031-5.332031-5.332031h-16zm0 0"
     id="path4"
     style="fill:#08649a;fill-opacity:1" />
  <path
     d="m453.332031 0h-394.664062c-32.363281 0-58.667969 26.304688-58.667969 58.667969v266.664062c0 32.363281 26.304688 58.667969 58.667969 58.667969h394.664062c32.363281 0 58.667969-26.304688 58.667969-58.667969v-266.664062c0-32.363281-26.304688-58.667969-58.667969-58.667969zm-378.664062 240v-96c0-8.832031 7.167969-16 16-16s16 7.167969 16 16v96c0 8.832031-7.167969 16-16 16s-16-7.167969-16-16zm101.332031-64c20.585938 0 37.332031 16.746094 37.332031 37.332031v5.335938c0 20.585937-16.746093 37.332031-37.332031 37.332031h-10.667969c-20.585937 0-37.332031-16.746094-37.332031-37.332031v-53.335938c0-20.585937 16.746094-37.332031 37.332031-37.332031h32c8.832031 0 16 7.167969 16 16s-7.167969 16-16 16h-32c-2.941406 0-5.332031 2.390625-5.332031 5.332031v10.667969zm101.332031 37.332031c11.777344 0 21.335938 9.578125 21.335938 21.335938 0 11.753906-9.558594 21.332031-21.335938 21.332031-11.773437 0-21.332031-9.578125-21.332031-21.332031 0-11.757813 9.558594-21.335938 21.332031-21.335938zm-21.332031-64c0-11.753906 9.558594-21.332031 21.332031-21.332031 11.777344 0 21.335938 9.578125 21.335938 21.332031 0 11.757813-9.558594 21.335938-21.335938 21.335938-11.773437 0-21.332031-9.578125-21.332031-21.335938zm170.667969 69.335938c0 20.585937-16.746094 37.332031-37.335938 37.332031h-32c-8.832031 0-16-7.167969-16-16s7.167969-16 16-16h32c2.945313 0 5.335938-2.390625 5.335938-5.332031v-10.667969h-16c-20.589844 0-37.335938-16.746094-37.335938-37.332031v-5.335938c0-20.585937 16.746094-37.332031 37.335938-37.332031h10.664062c20.589844 0 37.335938 16.746094 37.335938 37.332031zm0 0"
     id="path6"
     style="fill:#08649a;fill-opacity:1" />
</svg>
