<?xml version="1.0" encoding="UTF-8" standalone="no"?>
<svg
   xmlns:dc="http://purl.org/dc/elements/1.1/"
   xmlns:cc="http://creativecommons.org/ns#"
   xmlns:rdf="http://www.w3.org/1999/02/22-rdf-syntax-ns#"
   xmlns:svg="http://www.w3.org/2000/svg"
   xmlns="http://www.w3.org/2000/svg"
   xmlns:sodipodi="http://sodipodi.sourceforge.net/DTD/sodipodi-0.dtd"
   xmlns:inkscape="http://www.inkscape.org/namespaces/inkscape"
   height="512pt"
   viewBox="0 -64 512 512"
   width="512pt"
   version="1.1"
   id="svg4"
   sodipodi:docname="43.svg"
   inkscape:version="0.92.4 (5da689c313, 2019-01-14)">
  <metadata
     id="metadata10">
    <rdf:RDF>
      <cc:Work
         rdf:about="">
        <dc:format>image/svg+xml</dc:format>
        <dc:type
           rdf:resource="http://purl.org/dc/dcmitype/StillImage" />
      </cc:Work>
    </rdf:RDF>
  </metadata>
  <defs
     id="defs8" />
  <sodipodi:namedview
     pagecolor="#ffffff"
     bordercolor="#666666"
     borderopacity="1"
     objecttolerance="10"
     gridtolerance="10"
     guidetolerance="10"
     inkscape:pageopacity="0"
     inkscape:pageshadow="2"
     inkscape:window-width="2560"
     inkscape:window-height="1376"
     id="namedview6"
     showgrid="false"
     showguides="true"
     inkscape:lockguides="false"
     inkscape:snap-bbox="true"
     inkscape:guide-bbox="true"
     inkscape:bbox-paths="true"
     inkscape:bbox-nodes="true"
     inkscape:snap-bbox-edge-midpoints="true"
     inkscape:snap-bbox-midpoints="true"
     inkscape:snap-intersection-paths="true"
     inkscape:object-paths="true"
     inkscape:snap-smooth-nodes="true"
     inkscape:snap-midpoints="true"
     inkscape:snap-object-midpoints="true"
     inkscape:snap-center="true"
     inkscape:snap-text-baseline="true"
     inkscape:zoom="1.3828125"
     inkscape:cx="329.67377"
     inkscape:cy="357.40048"
     inkscape:window-x="0"
     inkscape:window-y="27"
     inkscape:window-maximized="1"
     inkscape:current-layer="svg4" />
  <path
     d="M 453.33203,0 H 58.667969 C 26.304688,0 0,26.304688 0,58.667969 V 325.33203 C 0,357.69531 26.304688,384 58.667969,384 H 453.33203 C 485.69531,384 512,357.69531 512,325.33203 V 58.667969 C 512,26.304688 485.69531,0 453.33203,0 Z M 144,208 c -20.58594,0 -37.33203,-16.74609 -37.33203,-37.33203 V 144 c 0,-8.83203 7.16797,-16 16,-16 8.83203,0 16,7.16797 16,16 v 26.66797 c 0,2.94141 2.39062,5.33203 5.33203,5.33203 h 16 v -32 c 0,-8.83203 7.16797,-16 16,-16 8.83203,0 16,7.16797 16,16 v 96 c 0,8.83203 -7.16797,16 -16,16 -8.83203,0 -16.19918,-7.17022 -16,-16 v -32 z m 112,-37.33203 c -11.77734,0 -21.33203,-9.57813 -21.33203,-21.33594 C 234.66797,137.57812 244.22266,128 256,128 c 11.77734,0 21.33203,9.57812 21.33203,21.33203 0,11.75781 -9.55469,21.33594 -21.33203,21.33594 z m 21.33203,64 C 277.33203,246.42187 267.77734,256 256,256 c -11.77734,0 -21.33203,-9.57813 -21.33203,-21.33203 0,-11.75781 9.55469,-21.33594 21.33203,-21.33594 11.77734,0 21.33203,9.57813 21.33203,21.33594 z M 336,208 c -8.83203,0 -16,-7.16797 -16,-16 0,-8.83203 7.16797,-16 16,-16 h 37.33203 V 165.33203 C 373.33203,162.39062 370.94141,160 368,160 h -32 c -8.83203,0 -16,-7.16797 -16,-16 0,-8.83203 7.16797,-16 16,-16 h 32 c 20.58594,0 37.33203,16.74609 37.33203,37.33203 v 53.33594 C 405.33203,239.25391 388.58594,256 368,256 h -32 c -8.83203,0 -16,-7.16797 -16,-16 0,-8.83203 7.16797,-16 16,-16 h 32 c 2.94141,0 5.33203,-2.39063 5.33203,-5.33203 V 208 Z"
     id="path2"
     inkscape:connector-curvature="0"
     sodipodi:nodetypes="sssssssssssssssscsssssscsssssssssssssscsssssssssssssscs"
     style="fill:#08649a;fill-opacity:1" />
</svg>
